# xmcd CD database file
#
# Track frame offsets:
#	150
#	11355
#	23082
#	36687
#	50347
#	63230
#	75727
#	86807
#	101477
#	112660
#	124637
#	139007
#	153300
#	166555
#
# Disc length: 2401 seconds
#
# Revision: 0
# Processed by: cddbd v1.4PL0 Copyright (c) Steve Scherf et al.
# Submitted via: CDex 1.50beta9
#
DISCID=a0095f0e
DTITLE=Sarah Vaughan - Nature Boy [CD3)
DYEAR=1900
DGENRE=Jazz
TTITLE0=I Can't Get Started
TTITLE1=Trouble Is A Man
TTITLE2=Love Me Or Leave Me
TTITLE3=I'll Wait And Pray
TTITLE4=I Get A Kick Out Of You
TTITLE5=The Man I Love
TTITLE6=I'm Gonna Sit Right Down And Write Myself A Letter
TTITLE7=The Man I Love Belongs To Somebody Else
TTITLE8=Button Up Your Overcoat
TTITLE9=I Feel So Smoochie
TTITLE10=It's You Or No One
TTITLE11=It's Magic
TTITLE12=Nature Boy
TTITLE13=I'm Grad There Is You
EXTD=
EXTT0=
EXTT1=
EXTT2=
EXTT3=
EXTT4=
EXTT5=
EXTT6=
EXTT7=
EXTT8=
EXTT9=
EXTT10=
EXTT11=
EXTT12=
EXTT13=
PLAYORDER=
